<svg id="Layer_1" data-name="Layer 1" xmlns="http://www.w3.org/2000/svg" viewBox="0 0 620 429.57"><defs><style>.cls-1{fill:#fff;}.cls-2,.cls-29,.cls-3,.cls-31,.cls-36,.cls-39,.cls-4,.cls-5,.cls-6,.cls-7,.cls-71,.cls-8{fill:none;}.cls-2,.cls-3,.cls-39,.cls-4,.cls-5,.cls-6,.cls-7,.cls-8{stroke:#999;}.cls-2,.cls-29,.cls-3,.cls-31,.cls-39,.cls-4,.cls-5,.cls-6,.cls-7,.cls-8{stroke-linecap:round;}.cls-2,.cls-29,.cls-3,.cls-39,.cls-4,.cls-5,.cls-6,.cls-7,.cls-8{stroke-linejoin:round;}.cls-3{stroke-dasharray:0 4.98 0 0;}.cls-4{stroke-dasharray:0 5.02 0 0;}.cls-5{stroke-dasharray:0 4.98 0 0;}.cls-6{stroke-dasharray:0 5 0 0;}.cls-7{stroke-dasharray:0 4.99 0 0;}.cls-8{stroke-dasharray:0 5 0 0;}.cls-10,.cls-34,.cls-37,.cls-56,.cls-9{fill:#004363;}.cls-10,.cls-12,.cls-40,.cls-56{font-size:13px;}.cls-10,.cls-12,.cls-13{font-family:FiraSans-Medium, Fira Sans;font-weight:500;}.cls-11,.cls-12,.cls-35,.cls-38{fill:#668ea1;}.cls-13,.cls-22{isolation:isolate;}.cls-13{font-size:18px;}.cls-14{letter-spacing:-0.02em;}.cls-15{letter-spacing:-0.01em;}.cls-16{letter-spacing:-0.01em;}.cls-17{letter-spacing:-0.02em;}.cls-18{letter-spacing:0em;}.cls-19{letter-spacing:0em;}.cls-20{letter-spacing:-0.02em;}.cls-21{letter-spacing:-0.01em;}.cls-22{font-size:14.51px;}.cls-22,.cls-40{font-family:FiraSans-Light, Fira Sans;}.cls-22,.cls-30,.cls-40,.cls-56{font-weight:300;}.cls-23{letter-spacing:-0.03em;}.cls-24{letter-spacing:-0.01em;}.cls-25{letter-spacing:0em;}.cls-26{letter-spacing:-0.01em;}.cls-27{letter-spacing:-0.03em;}.cls-28,.cls-33,.cls-34,.cls-35{font-size:14px;}.cls-28{fill:#333;}.cls-28,.cls-57{font-family:FiraSansCondensed-Regular, Fira Sans Condensed;}.cls-29{stroke:#666;}.cls-29,.cls-36,.cls-37,.cls-38{stroke-width:0.5px;}.cls-30,.cls-57{font-size:12px;}.cls-30,.cls-33{fill:#666;}.cls-30{font-family:FiraSansCondensed-Light, Fira Sans Condensed;}.cls-31{stroke:#b3b3b3;stroke-width:0.73px;stroke-dasharray:0 2.91 0 0;}.cls-31,.cls-36,.cls-37,.cls-38,.cls-71{stroke-miterlimit:10;}.cls-32{fill:#b3b3b3;}.cls-33,.cls-34,.cls-35{font-family:FiraSans-Regular, Fira Sans;}.cls-36{stroke:gray;}.cls-37,.cls-38{stroke:#fff;}.cls-39{stroke-dasharray:0 5 0 0;}.cls-40{fill:gray;}.cls-41{letter-spacing:-0.03em;}.cls-42{letter-spacing:-0.01em;}.cls-43{letter-spacing:0em;}.cls-44{letter-spacing:-0.02em;}.cls-45{letter-spacing:0em;}.cls-46{letter-spacing:-0.01em;}.cls-47{letter-spacing:0em;}.cls-48{letter-spacing:-0.01em;}.cls-49{letter-spacing:-0.01em;}.cls-50{letter-spacing:-0.01em;}.cls-51{letter-spacing:-0.03em;}.cls-52{letter-spacing:-0.01em;}.cls-53{letter-spacing:-0.03em;}.cls-54{letter-spacing:-0.01em;}.cls-55{letter-spacing:-0.03em;}.cls-56{font-family:FiraSans-LightItalic, Fira Sans;font-style:italic;}.cls-57{fill:#999;}.cls-58{letter-spacing:-0.02em;}.cls-59{letter-spacing:-0.03em;}.cls-60{letter-spacing:0em;}.cls-61{letter-spacing:0em;}.cls-62{letter-spacing:-0.01em;}.cls-63{letter-spacing:-0.01em;}.cls-64{letter-spacing:0em;}.cls-65{letter-spacing:-0.01em;}.cls-66{letter-spacing:-0.02em;}.cls-67{letter-spacing:-0.01em;}.cls-68{letter-spacing:-0.02em;}.cls-69{letter-spacing:-0.01em;}.cls-70{letter-spacing:0em;}.cls-71{stroke:#004363;stroke-width:0.75px;}</style></defs><rect class="cls-1" y="1" width="620" height="429.04"/><line class="cls-2" x1="226.17" y1="209.99" x2="226.17" y2="209.99"/><line class="cls-3" x1="231.15" y1="209.99" x2="614.7" y2="209.99"/><line class="cls-2" x1="614.7" y1="209.99" x2="614.7" y2="209.99"/><line class="cls-2" x1="112.94" y1="334.99" x2="112.94" y2="334.99"/><line class="cls-4" x1="117.96" y1="334.99" x2="614.7" y2="334.99"/><line class="cls-2" x1="614.7" y1="334.99" x2="614.7" y2="334.99"/><line class="cls-2" x1="261.32" y1="309.99" x2="261.32" y2="309.99"/><line class="cls-5" x1="266.3" y1="309.99" x2="614.7" y2="309.99"/><line class="cls-2" x1="614.7" y1="309.99" x2="614.7" y2="309.99"/><line class="cls-2" x1="274.72" y1="284.99" x2="274.72" y2="284.99"/><line class="cls-6" x1="279.72" y1="284.99" x2="614.7" y2="284.99"/><line class="cls-2" x1="614.7" y1="284.99" x2="614.7" y2="284.99"/><line class="cls-2" x1="370.25" y1="259.99" x2="370.25" y2="259.99"/><line class="cls-7" x1="375.24" y1="259.99" x2="614.7" y2="259.99"/><line class="cls-2" x1="614.7" y1="259.99" x2="614.7" y2="259.99"/><line class="cls-2" x1="120.2" y1="184.9" x2="120.2" y2="184.9"/><line class="cls-8" x1="125.19" y1="184.9" x2="614.7" y2="184.9"/><line class="cls-2" x1="614.7" y1="184.9" x2="614.7" y2="184.9"/><rect class="cls-9" x="3.31" y="65.2" width="10" height="10" transform="translate(78.51 61.89) rotate(90)"/><text class="cls-10" transform="translate(19.75 74.66)">konkrétní varianta</text><rect class="cls-11" x="154.92" y="65.05" width="10" height="10"/><text class="cls-12" transform="translate(171.86 74.66)">zbývající varianty v generaci</text><text class="cls-13" transform="translate(2 23.43)">De<tspan class="cls-14" x="21.55" y="0">t</tspan><tspan x="27.99" y="0">e</tspan><tspan class="cls-15" x="37.87" y="0">k</tspan><tspan class="cls-16" x="47.29" y="0">o</tspan><tspan class="cls-17" x="57.69" y="0">v</tspan><tspan x="66.42" y="0">ané </tspan><tspan class="cls-17" x="101.09" y="0">v</tspan><tspan x="109.82" y="0">arian</tspan><tspan class="cls-18" x="152.1" y="0">t</tspan><tspan class="cls-19" x="158.76" y="0">y </tspan><tspan class="cls-20" x="172.37" y="0">c</tspan><tspan class="cls-16" x="180.61" y="0">o</tspan><tspan class="cls-19" x="191.02" y="0">vidu v </tspan><tspan class="cls-20" x="244.4" y="0">Č</tspan><tspan x="254.27" y="0">es</tspan><tspan class="cls-21" x="272.72" y="0">k</tspan><tspan x="282.19" y="0">u</tspan></text><text class="cls-22" transform="translate(2 49.84)">B<tspan class="cls-23" x="8.68" y="0">ř</tspan><tspan class="cls-24" x="13.65" y="0">ez</tspan><tspan class="cls-25" x="27.38" y="0">en 2</tspan><tspan class="cls-26" x="54.63" y="0">0</tspan><tspan class="cls-25" x="62.41" y="0">20 až b</tspan><tspan class="cls-23" x="107.77" y="0">ř</tspan><tspan class="cls-24" x="112.75" y="0">ez</tspan><tspan class="cls-25" x="126.47" y="0">en 2</tspan><tspan class="cls-26" x="153.72" y="0">0</tspan><tspan class="cls-27" x="161.5" y="0">2</tspan><tspan x="168.04" y="0">1</tspan></text><text class="cls-28" transform="translate(392.27 122.26)">Měsíce s významným výskytem varianty</text><text class="cls-28" transform="translate(2.96 122.26)">Zjednodušený rodokmen variant covid</text><line class="cls-29" x1="606.24" y1="172.93" x2="606.24" y2="169.93"/><line class="cls-29" x1="589.32" y1="172.93" x2="589.32" y2="169.93"/><line class="cls-29" x1="572.4" y1="172.93" x2="572.4" y2="169.93"/><line class="cls-29" x1="555.47" y1="172.93" x2="555.47" y2="169.93"/><line class="cls-29" x1="538.55" y1="172.93" x2="538.55" y2="169.93"/><line class="cls-29" x1="521.63" y1="172.93" x2="521.63" y2="169.93"/><line class="cls-29" x1="504.7" y1="172.93" x2="504.7" y2="169.93"/><line class="cls-29" x1="487.78" y1="172.93" x2="487.78" y2="169.93"/><line class="cls-29" x1="470.86" y1="172.93" x2="470.86" y2="169.93"/><line class="cls-29" x1="453.93" y1="172.93" x2="453.93" y2="169.93"/><line class="cls-29" x1="437.01" y1="172.93" x2="437.01" y2="169.93"/><line class="cls-29" x1="420.09" y1="172.93" x2="420.09" y2="169.93"/><line class="cls-29" x1="403.17" y1="172.93" x2="403.17" y2="169.93"/><text class="cls-30" transform="translate(391.98 149.2)">2020<tspan x="1.95" y="14.4">bře.</tspan></text><text class="cls-30" transform="translate(595.85 149.2)">2021<tspan x="1.16" y="14.4">bře.</tspan></text><text class="cls-30"><tspan x="546.05" y="163.6">pro.</tspan></text><text class="cls-30" transform="translate(444.51 163.6)">čvn.</text><text class="cls-30" transform="translate(496.32 163.6)">zář.</text><circle class="cls-9" cx="109" cy="184.99" r="9.23"/><circle class="cls-11" cx="109" cy="334.99" r="1.95"/><line class="cls-31" x1="10.02" y1="377.58" x2="36.19" y2="367.26"/><line class="cls-31" x1="36.19" y1="382.47" x2="10.02" y2="382.51"/><circle class="cls-32" cx="10.3" cy="380.04" r="2.83"/><circle class="cls-32" cx="38.09" cy="374.87" r="8.2"/><text class="cls-33" transform="translate(6.07 160.03)">B</text><text class="cls-34" transform="translate(118.63 176.24)">B.1</text><text class="cls-34" transform="translate(216.6 204.73)">B.1.1</text><text class="cls-34" transform="translate(329.47 238.66)">B.1.1.7</text><text class="cls-35" transform="translate(328.72 265.49)">B.1.1.x</text><text class="cls-34" transform="translate(227.46 289.85)">B.1.258</text><text class="cls-35" transform="translate(227.68 315.5)">B.1.x</text><text class="cls-35" transform="translate(111.92 331.09)">B.x</text><path class="cls-36" d="M17.82,155.83c43,0,43.88,29.07,80,29.07"/><path class="cls-36" d="M120.2,184.9c43,0,51.81,25.09,87.93,25.09"/><path class="cls-36" d="M120.2,184.9c43,0,40,125.09,85.46,125.09"/><path class="cls-36" d="M120.2,184.9c43,0,43.88,100.09,80,100.09"/><circle class="cls-37" cx="213.58" cy="209.97" r="2.99"/><circle class="cls-11" cx="213.58" cy="309.99" r="5.59"/><circle class="cls-9" cx="213.58" cy="284.99" r="11.57"/><circle class="cls-9" cx="313.11" cy="233.57" r="13.65"/><circle class="cls-11" cx="313.11" cy="261.41" r="10.27"/><path class="cls-36" d="M218.86,210c42,0,42.88,23.58,78.17,23.58"/><path class="cls-36" d="M218.86,210c42,0,46.13,51.42,81.42,51.42"/><path class="cls-36" d="M17.82,155.83c43,0,50.95,179.16,87.07,179.16"/><rect class="cls-38" x="394.7" y="326.24" width="16.92" height="17.5"/><rect class="cls-38" x="394.7" y="326.24" width="16.92" height="17.5"/><rect class="cls-38" x="563.94" y="301.24" width="16.92" height="17.5"/><rect class="cls-38" x="563.94" y="301.24" width="16.92" height="17.5"/><rect class="cls-38" x="547.01" y="301.24" width="16.92" height="17.5"/><rect class="cls-38" x="547.01" y="301.24" width="16.92" height="17.5"/><rect class="cls-38" x="530.09" y="301.24" width="16.92" height="17.5"/><rect class="cls-38" x="530.09" y="301.24" width="16.92" height="17.5"/><rect class="cls-38" x="513.17" y="301.24" width="16.92" height="17.5"/><rect class="cls-38" x="513.17" y="301.24" width="16.92" height="17.5"/><rect class="cls-37" x="563.94" y="276.24" width="16.92" height="17.5"/><rect class="cls-37" x="563.94" y="276.24" width="16.92" height="17.5"/><rect class="cls-37" x="547.01" y="276.24" width="16.92" height="17.5"/><rect class="cls-37" x="547.01" y="276.24" width="16.92" height="17.5"/><rect class="cls-37" x="530.09" y="276.24" width="16.92" height="17.5"/><rect class="cls-37" x="530.09" y="276.24" width="16.92" height="17.5"/><rect class="cls-37" x="513.17" y="276.24" width="16.92" height="17.5"/><rect class="cls-37" x="513.17" y="276.24" width="16.92" height="17.5"/><rect class="cls-37" x="496.24" y="276.24" width="16.92" height="17.5"/><rect class="cls-37" x="496.24" y="276.24" width="16.92" height="17.5"/><rect class="cls-38" x="563.94" y="251.24" width="16.92" height="17.5"/><rect class="cls-38" x="563.94" y="251.24" width="16.92" height="17.5"/><rect class="cls-38" x="547.01" y="251.24" width="16.92" height="17.5"/><rect class="cls-38" x="547.01" y="251.24" width="16.92" height="17.5"/><rect class="cls-38" x="530.09" y="251.24" width="16.92" height="17.5"/><rect class="cls-38" x="530.09" y="251.24" width="16.92" height="17.5"/><rect class="cls-38" x="513.17" y="251.24" width="16.92" height="17.5"/><rect class="cls-38" x="513.17" y="251.24" width="16.92" height="17.5"/><rect class="cls-38" x="496.24" y="251.24" width="16.92" height="17.5"/><rect class="cls-38" x="496.24" y="251.24" width="16.92" height="17.5"/><rect class="cls-38" x="479.32" y="251.24" width="16.92" height="17.5"/><rect class="cls-38" x="479.32" y="251.24" width="16.92" height="17.5"/><rect class="cls-38" x="462.4" y="251.24" width="16.92" height="17.5"/><rect class="cls-38" x="462.4" y="251.24" width="16.92" height="17.5"/><rect class="cls-38" x="445.47" y="251.24" width="16.92" height="17.5"/><rect class="cls-38" x="445.47" y="251.24" width="16.92" height="17.5"/><rect class="cls-38" x="428.55" y="251.24" width="16.92" height="17.5"/><rect class="cls-38" x="428.55" y="251.24" width="16.92" height="17.5"/><rect class="cls-38" x="411.63" y="251.24" width="16.92" height="17.5"/><rect class="cls-38" x="411.63" y="251.24" width="16.92" height="17.5"/><rect class="cls-38" x="394.7" y="251.24" width="16.92" height="17.5"/><rect class="cls-38" x="394.7" y="251.24" width="16.92" height="17.5"/><rect class="cls-37" x="597.78" y="226.24" width="16.92" height="17.5"/><rect class="cls-37" x="597.78" y="226.24" width="16.92" height="17.5"/><rect class="cls-37" x="580.86" y="226.24" width="16.92" height="17.5"/><rect class="cls-37" x="580.86" y="226.24" width="16.92" height="17.5"/><rect class="cls-37" x="563.94" y="226.24" width="16.92" height="17.5"/><rect class="cls-37" x="563.94" y="226.24" width="16.92" height="17.5"/><rect class="cls-37" x="563.94" y="201.24" width="16.92" height="17.5"/><rect class="cls-37" x="563.94" y="201.24" width="16.92" height="17.5"/><rect class="cls-37" x="547.01" y="201.24" width="16.92" height="17.5"/><rect class="cls-37" x="547.01" y="201.24" width="16.92" height="17.5"/><rect class="cls-37" x="530.09" y="201.24" width="16.92" height="17.5"/><rect class="cls-37" x="530.09" y="201.24" width="16.92" height="17.5"/><rect class="cls-37" x="513.17" y="201.24" width="16.92" height="17.5"/><rect class="cls-37" x="513.17" y="201.24" width="16.92" height="17.5"/><rect class="cls-37" x="496.24" y="201.24" width="16.92" height="17.5"/><rect class="cls-37" x="496.24" y="201.24" width="16.92" height="17.5"/><rect class="cls-37" x="411.63" y="201.24" width="16.92" height="17.5"/><rect class="cls-37" x="411.63" y="201.24" width="16.92" height="17.5"/><rect class="cls-37" x="394.7" y="201.24" width="16.92" height="17.5"/><rect class="cls-37" x="394.7" y="201.24" width="16.92" height="17.5"/><rect class="cls-37" x="411.63" y="176.24" width="16.92" height="17.5"/><rect class="cls-37" x="411.63" y="176.24" width="16.92" height="17.5"/><rect class="cls-37" x="394.7" y="176.24" width="16.92" height="17.5"/><rect class="cls-37" x="394.7" y="176.24" width="16.92" height="17.5"/><line class="cls-39" x1="370.25" y1="234.99" x2="563.94" y2="234.99"/><text class="cls-40" transform="translate(60.2 372.47)"><tspan class="cls-41">V</tspan><tspan x="6.77" y="0">eli</tspan><tspan class="cls-42" x="20.94" y="0">k</tspan><tspan x="27.2" y="0">ost </tspan><tspan class="cls-42" x="48.71" y="0">k</tspan><tspan x="54.96" y="0">o</tspan><tspan class="cls-43" x="62.39" y="0">l</tspan><tspan x="66.01" y="0">eč</tspan><tspan class="cls-44" x="79.08" y="0">k</tspan><tspan x="85.23" y="0">a odp</tspan><tspan class="cls-45" x="118.4" y="0">o</tspan><tspan x="125.8" y="0">vídá de</tspan><tspan class="cls-46" x="168.19" y="0">t</tspan><tspan x="172.47" y="0">e</tspan><tspan class="cls-42" x="179.43" y="0">k</tspan><tspan class="cls-47" x="185.69" y="0">o</tspan><tspan class="cls-48" x="193.08" y="0">v</tspan><tspan x="199.02" y="0">anému počtu v</tspan><tspan class="cls-49" x="285.56" y="0">z</tspan><tspan x="290.97" y="0">or</tspan><tspan class="cls-50" x="303.24" y="0">k</tspan><tspan x="309.51" y="0">ů </tspan><tspan x="0" y="15">dané </tspan><tspan class="cls-48" x="32.76" y="15">v</tspan><tspan x="38.7" y="15">arian</tspan><tspan class="cls-43" x="68.58" y="15">t</tspan><tspan x="72.95" y="15">y v období b</tspan><tspan class="cls-51" x="144.65" y="15">ř</tspan><tspan class="cls-49" x="149.1" y="15">ez</tspan><tspan x="161.4" y="15">en 2</tspan><tspan class="cls-52" x="185.82" y="15">0</tspan><tspan x="192.78" y="15">20 až b</tspan><tspan class="cls-53" x="233.42" y="15">ř</tspan><tspan class="cls-50" x="237.88" y="15">ez</tspan><tspan x="250.18" y="15">en 2</tspan><tspan class="cls-54" x="274.59" y="15">0</tspan><tspan class="cls-55" x="281.56" y="15">2</tspan><tspan x="287.42" y="15">1</tspan></text><text class="cls-56" transform="translate(300.28 153.7)">britská<tspan x="0" y="12">varianta</tspan></text><text class="cls-57" transform="translate(272.99 420.64)"><tspan class="cls-58">Z</tspan><tspan x="5.4" y="0">d</tspan><tspan class="cls-59" x="11.83" y="0">r</tspan><tspan class="cls-60" x="15.68" y="0">oj da</tspan><tspan class="cls-61" x="40.15" y="0">t</tspan><tspan x="44.12" y="0">: I</tspan><tspan class="cls-62" x="52.63" y="0">M</tspan><tspan x="61.04" y="0">G </tspan><tspan class="cls-63" x="70.74" y="0">A</tspan><tspan x="76.88" y="0">V ČR | Vi</tspan><tspan class="cls-21" x="117.48" y="0">z</tspan><tspan class="cls-64" x="122.12" y="0">u</tspan><tspan class="cls-62" x="128.4" y="0">a</tspan><tspan x="134.16" y="0">li</tspan><tspan class="cls-65" x="140.35" y="0">z</tspan><tspan x="144.95" y="0">a</tspan><tspan class="cls-66" x="150.83" y="0">c</tspan><tspan x="155.73" y="0">e: i</tspan><tspan class="cls-67" x="170.05" y="0">R</tspan><tspan class="cls-68" x="176.48" y="0">O</tspan><tspan x="183.72" y="0">ZHLAS</tspan><tspan class="cls-62" x="214.23" y="0">.</tspan><tspan x="216.66" y="0">cz, Kristína </tspan><tspan class="cls-69" x="272.51" y="0">Z</tspan><tspan x="278" y="0">á</tspan><tspan class="cls-67" x="283.88" y="0">k</tspan><tspan class="cls-60" x="289.36" y="0">op</tspan><tspan class="cls-62" x="302.06" y="0">č</tspan><tspan x="307.07" y="0">an</tspan><tspan class="cls-70" x="319.28" y="0">o</tspan><tspan class="cls-63" x="325.54" y="0">v</tspan><tspan x="330.71" y="0">á</tspan></text><line class="cls-71" x1="313.11" y1="171.43" x2="313.11" y2="215.78"/><polygon class="cls-9" points="310.04 213.29 310.59 212.78 313.11 215.49 315.62 212.78 316.17 213.29 313.11 216.59 310.04 213.29"/></svg>